/* XPM */
static char * thotkeeper_xpm[] = {
"32 32 146 2",
"  	c None",
". 	c #835123",
"+ 	c #814E1E",
"@ 	c #946F56",
"# 	c #F4F1EE",
"$ 	c #FFFFFF",
"% 	c #F7FBFB",
"& 	c #81D4D4",
"* 	c #5ECDCD",
"= 	c #5ECCCC",
"- 	c #60CDCD",
"; 	c #65CECE",
"> 	c #824F1F",
", 	c #804C19",
"' 	c #936F55",
") 	c #F7FCFC",
"! 	c #7FD3D3",
"~ 	c #5CCCCC",
"{ 	c #6BD0D0",
"] 	c #814F1F",
"^ 	c #936D53",
"/ 	c #5DCCCC",
"( 	c #6AD0D0",
"_ 	c #8D6344",
": 	c #8C6243",
"< 	c #8B6141",
"[ 	c #9C7C66",
"} 	c #F4F1EF",
"| 	c #8BD6D6",
"1 	c #6DD0D0",
"2 	c #67CECE",
"3 	c #EFECE9",
"4 	c #F0ECE9",
"5 	c #F1EDEB",
"6 	c #FDFDFC",
"7 	c #FEFFFF",
"8 	c #EEF8F8",
"9 	c #ECF8F8",
"0 	c #EDF8F8",
"a 	c #C4E9E9",
"b 	c #5FCDCD",
"c 	c #D2EEEE",
"d 	c #79D2D2",
"e 	c #9EDCDC",
"f 	c #B5E3E3",
"g 	c #6CCFCF",
"h 	c #B8E4E4",
"i 	c #FCFEFE",
"j 	c #6DCFCF",
"k 	c #FDFEFE",
"l 	c #BDE6E6",
"m 	c #ECE8E6",
"n 	c #EEEAE8",
"o 	c #FDFCFC",
"p 	c #FEFEFE",
"q 	c #ECF7F7",
"r 	c #E9F6F6",
"s 	c #C2E8E8",
"t 	c #7FD4D4",
"u 	c #F1FAFA",
"v 	c #895D3B",
"w 	c #885C39",
"x 	c #885B38",
"y 	c #997760",
"z 	c #87D5D5",
"A 	c #69CFCF",
"B 	c #68CFCF",
"C 	c #64CECE",
"D 	c #A8DFDF",
"E 	c #C5E9E9",
"F 	c #936E54",
"G 	c #C7E9E9",
"H 	c #936E55",
"I 	c #AEE1E1",
"J 	c #86D5D5",
"K 	c #F5FBFB",
"L 	c #C9EBEB",
"M 	c #76D1D1",
"N 	c #DEF2F2",
"O 	c #77D2D2",
"P 	c #CCECEC",
"Q 	c #88D6D6",
"R 	c #B4E3E3",
"S 	c #CAEAEA",
"T 	c #936D54",
"U 	c #7DD3D3",
"V 	c #B3E3E3",
"W 	c #A4DEDE",
"X 	c #80D4D4",
"Y 	c #85D5D5",
"Z 	c #E8F6F6",
"` 	c #D4EEEE",
" .	c #6BCFCF",
"..	c #F9FDFD",
"+.	c #8CD7D7",
"@.	c #CDECEC",
"#.	c #A0DCDC",
"$.	c #926C52",
"%.	c #F3F0EE",
"&.	c #BBE6E6",
"*.	c #66CECE",
"=.	c #E5F4F4",
"-.	c #BCE6E6",
";.	c #835224",
">.	c #8D6446",
",.	c #F0ECEA",
"'.	c #FAFDFD",
").	c #E3F4F4",
"!.	c #D9F0F0",
"~.	c #D5EFEF",
"{.	c #87582E",
"].	c #855630",
"^.	c #E4DEDA",
"/.	c #D1EDED",
"(.	c #6ED0D0",
"_.	c #61CDCD",
":.	c #93D9D9",
"<.	c #F2FAFA",
"[.	c #E2F4F4",
"}.	c #74D1D1",
"|.	c #824F20",
"1.	c #C3B3A9",
"2.	c #D0EDED",
"3.	c #A0DDDD",
"4.	c #EAF7F7",
"5.	c #C1E8E8",
"6.	c #91D8D8",
"7.	c #DFF2F2",
"8.	c #C3E8E8",
"9.	c #7BD3D3",
"0.	c #8C5F38",
"a.	c #814E1C",
"b.	c #94715A",
"c.	c #EEE9E7",
"d.	c #E1F3F3",
"e.	c #63CDCD",
"f.	c #8C5E37",
"g.	c #AA9283",
"h.	c #F1EEEC",
"i.	c #8ED7D7",
"j.	c #86562B",
"k.	c #814E1D",
"l.	c #9F816F",
"m.	c #DBD2CC",
"n.	c #F6F4F2",
"o.	c #FEFEFD",
"                                                                ",
"  . + + + @ # $ $ $ $ $ $ % & * * * * * * * * * = - ;           ",
"  > , , , ' # $ $ $ $ $ $ ) ! ~ ~ ~ ~ ~ ~ ~ ~ ~ ~ ~ ~ * {       ",
"  ] , , , ^ # $ $ $ $ $ $ ) ! ~ ~ ~ ~ ~ ~ ~ ~ ~ ~ ~ ~ ~ / (     ",
"  > , , , ' # $ $ $ $ $ $ ) ! ~ ~ ~ ~ ~ ~ ~ ~ ~ ~ ~ ~ ~ ~ *     ",
"  _ : < : [ } $ $ $ $ $ $ ) | 1 1 1 2 ~ ~ ~ ~ ~ ~ ~ ~ ~ ~ ~ ;   ",
"  3 3 4 3 5 6 $ $ $ $ $ $ 7 8 9 9 0 a b ~ ~ ~ ~ ~ ~ ~ ~ ~ ~ b   ",
"  $ $ $ $ $ $ $ $ $ $ $ $ $ $ $ $ $ c b ~ ~ ~ ~ ~ ~ ~ / d e f   ",
"  $ $ $ $ $ $ $ $ $ $ $ $ $ $ $ $ $ c b ~ ~ ~ ~ ~ ~ g h 8 i $   ",
"  $ $ $ $ $ $ $ $ $ $ $ $ $ $ $ $ $ c b ~ ~ ~ ~ ~ j c k $ $ $   ",
"  $ $ $ $ $ $ $ $ $ $ $ $ $ $ $ $ $ c b ~ ~ ~ ~ = l k $ $ $ $   ",
"  m m m m n o $ $ $ $ $ $ p q r r r s b ~ ~ ~ ~ t u $ $ $ $ $   ",
"  v w x w y } $ $ $ $ $ $ ) z A A B C ~ ~ ~ ~ ~ D 7 $ $ $ $ $   ",
"  > , , , ' # $ $ $ $ $ $ ) ! ~ ~ ~ ~ ~ ~ ~ ~ ~ E $ $ $ $ $ $   ",
"  ] , , , F # $ $ $ $ $ $ ) ! ~ ~ ~ ~ ~ ~ ~ ~ ~ G $ $ $ $ $ $   ",
"  > , , , H # $ $ $ $ $ $ ) ! ~ ~ ~ ~ ~ ~ ~ ~ ~ I 7 $ $ $ $ $   ",
"  > , , , H # $ $ $ $ $ $ ) ! ~ ~ ~ ~ ~ ~ ~ ~ ~ J K $ $ $ $ $   ",
"  ] , , , F # $ $ $ $ $ $ ) ! ~ ~ ~ ~ ~ ~ ~ ~ ~ - L 7 $ $ $ $   ",
"  > , , , ' # $ $ $ $ $ $ ) ! ~ ~ ~ ~ ~ ~ ~ ~ ~ ~ M N 7 $ $ $   ",
"  ] , , , ^ # $ $ $ $ $ $ ) ! ~ ~ ~ ~ ~ ~ ~ ~ ~ ~ ~ O P K 7 $   ",
"  > , , , ' # $ $ $ $ $ $ ) ! ~ ~ ~ ~ ~ ~ ~ ~ ~ ~ ~ ~ - Q R S   ",
"  ] , , , T # $ $ $ $ $ $ ) ! ~ ~ ~ ~ ~ ~ ~ ~ U V a W g ~ ~ /   ",
"  > , , , H # $ $ $ $ $ $ ) X ~ ~ ~ ~ ~ ~ ~ Y Z 7 $ i `  .~ ~   ",
"  > , , , F # $ $ $ $ $ $ ..+.~ ~ ~ ~ ~ ~ b @.$ $ $ $ i #.~ ~   ",
"  + , , , $.%.$ $ $ $ $ $ 7 &.; = b - ~ ~ *.=.$ $ $ $ $ -.~ ~   ",
"  ;., , , >.,.$ $ $ $ $ $ $ '.).c !.-.= ~ - ~.$ $ $ $ 7 D ~ ~   ",
"  {., , , ].^.$ $ $ $ $ $ $ $ $ $ $ /.b (._.:.<.$ $ $ [.}.~ ~   ",
"    |., , , 1.p $ $ $ $ $ $ $ $ $ $ 2.3.4.5.- 6.2.7.8.9.~ ~ ~   ",
"    0.a., , b.c.$ $ $ $ $ $ $ $ $ $ 2.a $ d.2 ~ b e./ ~ ~ ~ ~   ",
"      f.> , , g.h.$ $ $ $ $ $ $ $ $ 2.9.h i.~ ~ ~ ~ ~ ~ ~ ~ ~   ",
"          j.|.k.l.m.n.o.$ $ $ $ $ $ 2.* / ~ ~ ~ ~ ~ ~ ~ ~ ~ ~   ",
"                                                                "};
