<?xml version="1.0" encoding="UTF-8" standalone="no"?>
<svg
   xmlns:dc="http://purl.org/dc/elements/1.1/"
   xmlns:cc="http://creativecommons.org/ns#"
   xmlns:rdf="http://www.w3.org/1999/02/22-rdf-syntax-ns#"
   xmlns:svg="http://www.w3.org/2000/svg"
   xmlns="http://www.w3.org/2000/svg"
   xmlns:sodipodi="http://sodipodi.sourceforge.net/DTD/sodipodi-0.dtd"
   xmlns:inkscape="http://www.inkscape.org/namespaces/inkscape"
   version="1.1"
   viewBox="0 0 1171.2 220.70691"
   preserveAspectRatio="xMidYMid"
   id="svg216"
   sodipodi:docname="thotkeeper-logo.svg"
   width="12.2in"
   height="2.2990303in"
   style="fill-rule:evenodd"
   inkscape:version="0.92.3 (2405546, 2018-03-11)">
  <metadata
     id="metadata222">
    <rdf:RDF>
      <cc:Work
         rdf:about="">
        <dc:format>image/svg+xml</dc:format>
        <dc:type
           rdf:resource="http://purl.org/dc/dcmitype/StillImage" />
        <dc:title></dc:title>
      </cc:Work>
    </rdf:RDF>
  </metadata>
  <defs
     id="defs220" />
  <sodipodi:namedview
     pagecolor="#ffffff"
     bordercolor="#666666"
     borderopacity="1"
     objecttolerance="10"
     gridtolerance="10"
     guidetolerance="10"
     inkscape:pageopacity="0"
     inkscape:pageshadow="2"
     inkscape:window-width="1853"
     inkscape:window-height="1018"
     id="namedview218"
     showgrid="false"
     units="in"
     fit-margin-top="0.1"
     fit-margin-left="0.1"
     fit-margin-right="0.1"
     fit-margin-bottom="0.1"
     inkscape:zoom="1.1116803"
     inkscape:cx="585.59999"
     inkscape:cy="110.35345"
     inkscape:window-x="67"
     inkscape:window-y="34"
     inkscape:window-maximized="1"
     inkscape:current-layer="g2196" />
  <g
     transform="translate(-244.39938,596.04592)"
     style="display:inline"
     inkscape:label="Text"
     id="g2196"
     inkscape:groupmode="layer">
    <g
       transform="matrix(0.01858962,0,0,0.01858962,249.27886,-579.29003)"
       id="g2108"
       visibility="visible"
       style="visibility:visible">
      <desc
         id="desc2106">Master slide</desc>
    </g>
    <g
       transform="matrix(0.01858962,0,0,0.01858962,249.27886,-579.29003)"
       id="g2192"
       visibility="visible"
       style="visibility:visible">
      <desc
         id="desc2110">Slide</desc>
      <g
         id="g2112" />
      <g
         id="g2114" />
      <g
         id="g2116" />
      <g
         id="g2118" />
      <g
         id="g2120" />
      <g
         id="g2122" />
      <g
         id="g2124" />
      <g
         id="g2126" />
      <g
         id="g2128" />
      <g
         id="g2130" />
      <g
         id="g2132" />
      <g
         id="g2134" />
      <g
         id="g2136" />
      <g
         inkscape:export-ydpi="300"
         inkscape:export-xdpi="300"
         inkscape:export-filename="/home/cmpilato/Desktop/text.png"
         id="g2162">
        <g
           id="g2146">
          <path
             inkscape:connector-curvature="0"
             d="m 14911,3326 v 984 h -825 v 3112 l 1,91 5,83 7,75 11,67 13,59 17,51 9,22 10,20 11,19 11,16 13,15 14,13 16,13 17,12 19,11 21,10 22,9 24,8 52,13 58,9 65,6 71,2 64,-2 78,-6 92,-10 104,-14 v 1038 l -92,27 -96,24 -101,20 -105,16 -109,13 -114,9 -118,5 -122,2 -175,-5 -165,-16 -153,-26 -141,-37 -130,-47 -119,-58 -108,-68 -96,-79 -85,-89 -74,-100 -62,-110 -51,-121 -40,-131 -28,-142 -17,-152 -6,-163 V 4310 h -730 v -984 h 730 V 2286 l 1482,-495 v 1535 z"
             id="path2138"
             style="fill:#804c19;stroke:none" />
          <path
             inkscape:connector-curvature="0"
             d="m 19094,5433 -4,-128 -10,-120 -18,-112 -25,-103 -32,-95 -39,-87 -46,-79 -54,-70 -60,-62 -68,-54 -74,-46 -82,-37 -89,-29 -96,-20 -103,-13 -110,-4 -122,5 -116,15 -111,25 -105,35 -51,21 -49,23 -48,26 -46,29 -45,31 -44,33 -84,75 -76,82 -34,43 -31,44 -29,46 -26,47 -24,48 -22,50 -18,51 -17,52 -25,108 -15,114 -5,119 V 8925 H 15559 V 2286 l 1482,-508 v 2258 l 78,-112 82,-104 86,-97 89,-90 92,-83 96,-75 99,-69 103,-61 106,-54 110,-46 113,-40 116,-32 121,-26 123,-18 127,-10 131,-4 84,1 83,5 82,7 80,10 80,12 78,16 77,18 76,21 75,24 75,28 75,32 74,35 74,39 74,42 73,46 73,50 71,55 67,61 63,68 59,74 56,80 52,88 48,93 44,100 40,105 34,111 29,114 24,120 18,124 13,129 8,133 3,138 v 3831 h -1481 z"
             id="path2140"
             style="fill:#804c19;stroke:none" />
          <path
             inkscape:connector-curvature="0"
             d="m 23901,3115 327,13 308,38 289,63 138,41 133,48 128,53 124,60 119,67 114,73 110,79 105,85 100,92 96,98 90,104 85,108 78,114 73,118 67,124 61,129 105,272 82,292 58,313 35,332 12,353 -12,335 -36,317 -59,299 -83,282 -51,134 -57,129 -62,126 -69,120 -74,116 -80,112 -87,107 -92,103 -97,97 -102,91 -106,85 -110,79 -114,72 -118,66 -123,60 -127,53 -131,47 -135,41 -284,63 -300,37 -317,13 -322,-13 -304,-38 -286,-63 -136,-41 -132,-47 -127,-54 -123,-60 -119,-67 -114,-73 -109,-79 -105,-85 -101,-92 -96,-98 -91,-103 -85,-108 -79,-113 -74,-118 -67,-122 -62,-127 -106,-267 -82,-287 -59,-305 -35,-324 -12,-343 12,-342 35,-324 59,-305 82,-287 106,-267 62,-127 67,-122 74,-118 79,-113 85,-108 91,-103 96,-98 101,-92 105,-85 109,-79 113,-73 118,-66 123,-60 127,-54 131,-48 135,-41 284,-63 302,-38 z m 11,1196 -74,2 -73,6 -71,10 -69,14 -67,18 -66,21 -63,26 -62,30 -60,34 -58,37 -57,42 -54,46 -53,49 -51,54 -49,57 -47,62 -87,132 -75,141 -63,151 -52,160 -41,170 -29,180 -17,189 -6,199 6,199 17,190 29,180 41,170 52,160 63,151 75,141 87,132 47,62 49,57 51,54 53,49 54,46 57,42 58,37 60,34 62,30 63,26 66,21 67,18 69,14 71,10 73,6 74,2 73,-2 72,-6 70,-10 68,-13 66,-18 65,-22 63,-25 61,-29 60,-34 58,-37 56,-41 55,-45 53,-49 51,-53 97,-118 88,-131 77,-140 64,-149 53,-158 41,-169 30,-177 17,-187 6,-196 -6,-206 -17,-196 -28,-185 -40,-174 -52,-163 -62,-153 -75,-142 -85,-131 -47,-61 -48,-57 -51,-53 -52,-49 -54,-45 -57,-41 -58,-37 -60,-34 -62,-29 -65,-25 -66,-22 -68,-18 -70,-13 -71,-10 -74,-6 z"
             id="path2142"
             style="fill:#804c19;stroke:none" />
          <path
             inkscape:connector-curvature="0"
             d="m 29867,3326 v 984 h -825 v 3112 l 1,91 5,83 7,75 11,67 13,59 17,51 9,22 10,20 11,19 11,16 13,15 14,13 16,13 17,12 19,11 21,10 22,9 24,8 52,13 58,9 65,6 71,2 64,-2 78,-6 92,-10 104,-14 v 1038 l -92,27 -96,24 -101,20 -105,16 -109,13 -114,9 -118,5 -122,2 -175,-5 -165,-16 -153,-26 -141,-37 -130,-47 -119,-58 -108,-68 -96,-79 -85,-89 -74,-100 -62,-110 -51,-121 -40,-131 -28,-142 -17,-152 -6,-163 V 4310 h -730 v -984 h 730 V 2286 l 1482,-495 v 1535 z"
             id="path2144"
             style="fill:#804c19;stroke:none" />
        </g>
        <g
           id="g2160">
          <path
             id="path2148"
             d="m 32012,5433 1873,-2223 h 1683 l -1947,2159 2084,3556 h -1735 l -1365,-2519 -593,646 V 8925 H 30530 V 2286 l 1482,-508 z"
             inkscape:connector-curvature="0"
             style="fill:#5ccccc;stroke:none" />
          <path
             id="path2150"
             d="m 38169,3115 184,5 181,16 178,26 176,37 88,23 88,28 88,32 89,36 90,41 90,45 91,49 91,53 90,57 86,62 84,65 81,69 78,72 75,77 72,80 69,84 66,90 62,96 60,104 56,110 54,117 50,125 47,131 44,138 40,144 34,149 29,155 24,159 18,165 13,169 11,355 -1,64 -1,63 -4,63 -5,64 h -3831 l 8,158 13,148 16,135 22,125 13,59 15,60 18,58 20,59 22,58 25,57 27,58 29,57 32,55 36,52 40,49 43,45 47,42 50,39 54,35 58,32 62,28 65,25 69,21 73,17 76,14 81,9 84,6 88,2 104,-3 99,-8 95,-14 90,-20 86,-25 82,-31 77,-37 73,-42 69,-48 64,-53 60,-59 55,-65 51,-70 47,-76 42,-82 38,-87 h 1461 l -69,206 -83,196 -98,184 -113,174 -128,164 -142,152 -158,142 -172,131 -184,118 -191,102 -199,86 -207,71 -214,55 -222,40 -229,23 -237,8 -296,-12 -280,-37 -134,-28 -130,-34 -126,-40 -122,-46 -117,-52 -114,-59 -110,-65 -105,-70 -102,-77 -97,-83 -94,-90 -89,-95 -84,-101 -79,-105 -74,-110 -68,-115 -63,-119 -57,-124 -98,-261 -77,-280 -54,-298 -33,-317 -11,-335 11,-350 33,-331 56,-313 77,-293 100,-274 122,-255 69,-121 75,-116 80,-111 86,-106 91,-101 94,-94 99,-87 103,-81 107,-75 111,-68 115,-62 119,-55 123,-48 127,-42 131,-36 135,-29 283,-39 z m 1132,2434 -17,-152 -24,-143 -32,-134 -39,-124 -47,-116 -54,-107 -62,-98 -34,-46 -35,-43 -37,-41 -39,-38 -41,-36 -43,-33 -44,-31 -46,-28 -48,-25 -50,-22 -52,-20 -53,-17 -55,-15 -57,-12 -119,-16 -126,-5 -118,5 -112,15 -106,26 -99,35 -93,46 -86,56 -80,66 -73,77 -67,86 -60,97 -54,106 -48,117 -41,128 -34,137 -28,147 -22,158 z"
             inkscape:connector-curvature="0"
             style="fill:#5ccccc;stroke:none" />
          <path
             id="path2152"
             d="m 43853,3115 184,5 181,16 178,26 176,37 88,23 88,28 88,32 89,36 90,41 90,45 91,49 91,53 90,57 86,62 84,65 81,69 78,72 75,77 72,80 69,84 66,90 62,96 60,104 56,110 54,117 50,125 47,131 44,138 40,144 34,149 29,155 24,159 18,165 13,169 11,355 -1,64 -1,63 -4,63 -5,64 h -3831 l 8,158 13,148 16,135 22,125 13,59 15,60 18,58 20,59 22,58 25,57 27,58 29,57 32,55 36,52 40,49 43,45 47,42 50,39 54,35 58,32 62,28 65,25 69,21 73,17 76,14 81,9 84,6 88,2 104,-3 99,-8 95,-14 90,-20 86,-25 82,-31 77,-37 73,-42 69,-48 64,-53 60,-59 55,-65 51,-70 47,-76 42,-82 38,-87 h 1461 l -69,206 -83,196 -98,184 -113,174 -128,164 -142,152 -158,142 -172,131 -184,118 -191,102 -199,86 -207,71 -214,55 -222,40 -229,23 -237,8 -296,-12 -280,-37 -134,-28 -130,-34 -126,-40 -122,-46 -117,-52 -114,-59 -110,-65 -105,-70 -102,-77 -97,-83 -94,-90 -89,-95 -84,-101 -79,-105 -74,-110 -68,-115 -63,-119 -57,-124 -98,-261 -77,-280 -54,-298 -33,-317 -11,-335 11,-350 33,-331 56,-313 77,-293 100,-274 122,-255 69,-121 75,-116 80,-111 86,-106 91,-101 94,-94 99,-87 103,-81 107,-75 111,-68 115,-62 119,-55 123,-48 127,-42 131,-36 135,-29 283,-39 z m 1132,2434 -17,-152 -24,-143 -32,-134 -39,-124 -47,-116 -54,-107 -62,-98 -34,-46 -35,-43 -37,-41 -39,-38 -41,-36 -43,-33 -44,-31 -46,-28 -48,-25 -50,-22 -52,-20 -53,-17 -55,-15 -57,-12 -119,-16 -126,-5 -118,5 -112,15 -106,26 -99,35 -93,46 -86,56 -80,66 -73,77 -67,86 -60,97 -54,106 -48,117 -41,128 -34,137 -28,147 -22,158 z"
             inkscape:connector-curvature="0"
             style="fill:#5ccccc;stroke:none" />
          <path
             id="path2154"
             d="m 50141,3115 133,3 130,11 127,16 123,24 120,31 117,37 114,44 110,51 106,58 104,64 100,71 97,78 93,85 91,91 86,99 84,105 154,224 133,237 113,250 93,265 72,278 51,291 31,305 10,319 -11,319 -32,304 -53,292 -75,277 -96,263 -117,250 -139,237 -160,222 -176,202 -92,91 -95,84 -97,78 -100,71 -103,64 -106,57 -108,51 -111,44 -113,37 -116,30 -119,24 -122,17 -124,10 -127,3 -130,-4 -126,-11 -122,-18 -118,-25 -114,-33 -110,-40 -105,-47 -101,-55 -98,-61 -93,-70 -88,-76 -85,-84 -81,-90 -76,-99 -73,-105 -68,-113 v 2166 H 47072 V 3210 l 1481,-543 v 1390 l 68,-114 73,-107 76,-99 81,-92 85,-85 88,-77 93,-70 98,-62 101,-56 105,-48 110,-40 114,-33 118,-26 122,-18 126,-11 z m 566,1741 -44,-61 -45,-57 -48,-53 -48,-49 -51,-45 -52,-41 -54,-38 -56,-33 -58,-30 -59,-25 -60,-22 -63,-18 -64,-13 -66,-10 -68,-6 -69,-2 -69,2 -68,6 -66,10 -64,13 -62,18 -61,21 -59,25 -57,30 -56,33 -54,37 -53,40 -50,45 -49,49 -47,52 -90,117 -81,129 -69,139 -59,148 -49,158 -38,167 -26,177 -17,187 -5,196 5,196 17,187 26,176 38,168 49,157 59,147 69,138 81,128 44,60 45,55 48,52 48,48 51,44 52,41 54,36 56,33 58,29 59,25 60,21 63,17 64,14 66,9 68,6 69,2 68,-2 66,-6 65,-10 64,-13 61,-18 61,-21 58,-25 57,-29 56,-34 54,-37 52,-40 51,-45 49,-49 47,-52 91,-117 82,-128 71,-138 60,-146 49,-154 38,-163 27,-172 17,-180 5,-189 -5,-199 -17,-189 -26,-179 -38,-169 -49,-160 -59,-150 -69,-140 z"
             inkscape:connector-curvature="0"
             style="fill:#5ccccc;stroke:none" />
          <path
             id="path2156"
             d="m 55603,3115 184,5 181,16 178,26 176,37 88,23 88,28 88,32 89,36 90,41 90,45 91,49 91,53 90,57 86,62 84,65 81,69 78,72 75,77 72,80 69,84 66,90 62,96 60,104 56,110 54,117 50,125 47,131 44,138 40,144 34,149 29,155 24,159 18,165 13,169 11,355 -1,64 -1,63 -4,63 -5,64 h -3831 l 8,158 13,148 16,135 22,125 13,59 15,60 18,58 20,59 22,58 25,57 27,58 29,57 32,55 36,52 40,49 43,45 47,42 50,39 54,35 58,32 62,28 65,25 69,21 73,17 76,14 81,9 84,6 88,2 104,-3 99,-8 95,-14 90,-20 86,-25 82,-31 77,-37 73,-42 69,-48 64,-53 60,-59 55,-65 51,-70 47,-76 42,-82 38,-87 h 1461 l -69,206 -83,196 -98,184 -113,174 -128,164 -142,152 -158,142 -172,131 -184,118 -191,102 -199,86 -207,71 -214,55 -222,40 -229,23 -237,8 -296,-12 -280,-37 -134,-28 -130,-34 -126,-40 -122,-46 -117,-52 -114,-59 -110,-65 -105,-70 -102,-77 -97,-83 -94,-90 -89,-95 -84,-101 -79,-105 -74,-110 -68,-115 -63,-119 -57,-124 -98,-261 -77,-280 -54,-298 -33,-317 -11,-335 11,-350 33,-331 56,-313 77,-293 100,-274 122,-255 69,-121 75,-116 80,-111 86,-106 91,-101 94,-94 99,-87 103,-81 107,-75 111,-68 115,-62 119,-55 123,-48 127,-42 131,-36 135,-29 283,-39 z m 1132,2434 -17,-152 -24,-143 -32,-134 -39,-124 -47,-116 -54,-107 -62,-98 -34,-46 -35,-43 -37,-41 -39,-38 -41,-36 -43,-33 -44,-31 -46,-28 -48,-25 -50,-22 -52,-20 -53,-17 -55,-15 -57,-12 -119,-16 -126,-5 -118,5 -112,15 -106,26 -99,35 -93,46 -86,56 -80,66 -73,77 -67,86 -60,97 -54,106 -48,117 -41,128 -34,137 -28,147 -22,158 z"
             inkscape:connector-curvature="0"
             style="fill:#5ccccc;stroke:none" />
          <path
             id="path2158"
             d="m 58975,3210 1481,-543 v 1665 l 61,-141 68,-133 73,-125 79,-117 85,-108 90,-100 97,-92 103,-84 107,-74 110,-65 113,-54 115,-45 118,-34 120,-25 123,-15 126,-5 47,1 45,2 45,3 43,5 v 1502 l -129,-18 -120,-13 -113,-8 -104,-3 -158,5 -147,15 -137,26 -128,35 -117,46 -106,56 -97,66 -86,77 -77,86 -66,97 -56,106 -46,117 -35,128 -26,137 -15,147 -5,158 v 3037 h -1481 z"
             inkscape:connector-curvature="0"
             style="fill:#5ccccc;stroke:none" />
        </g>
      </g>
      <g
         id="g2164" />
    </g>
    <g
       transform="matrix(0.01858962,0,0,0.01858962,249.27886,-579.29003)"
       id="g2194"
       style="visibility:visible" />
  </g>
  <g
     inkscape:groupmode="layer"
     id="layer2"
     inkscape:label="Graphic White BG"
     style="display:inline"
     transform="translate(-244.39938,596.04592)">
    <path
       inkscape:connector-curvature="0"
       style="display:inline;fill:#ffffff;fill-rule:evenodd;stroke-width:0.01858962"
       d="m 254.00063,-574.56825 v 141.43754 2.06097 h 0.0162 0.0574 c 1.09936,24.51357 20.78498,44.39969 45.2991,45.37208 v 0 h 0.0162 143.46741 0.0162 v -143.4985 h -0.0162 -0.276 c -0.99284,-24.50976 -20.58091,-44.17897 -45.08175,-45.26847 v -0.10369 h -0.0162 -2.05472 -141.41269 -0.0162 z"
       id="path1029"
       sodipodi:nodetypes="cccccccccccccccccccc" />
  </g>
  <g
     transform="translate(-244.39938,596.04592)"
     style="display:inline"
     inkscape:label="Graphic"
     id="g2088"
     inkscape:groupmode="layer">
    <path
       style="display:inline;fill:#804c19;fill-opacity:1;fill-rule:evenodd;stroke-width:0.01858962"
       d="M 9.6015625,21.478516 V 54.705078 H 42.042969 V 21.478516 H 9.6152344 Z"
       transform="translate(244.39938,-596.04592)"
       id="path2102"
       inkscape:connector-curvature="0" />
    <path
       style="display:inline;fill:#5ccccc;fill-opacity:1;fill-rule:evenodd;stroke-width:0.01858962"
       d="M 91.482422,21.478516 V 54.705078 H 119.69727 V 90.025391 H 91.482422 v 62.363279 l 0.0332,3.03516 0.166016,2.76953 0.234375,2.50195 0.367187,2.23438 0.433594,1.96875 0.566406,1.70117 0.300781,0.73437 0.333985,0.66602 0.367187,0.63477 0.367188,0.5332 0.433594,0.5 0.466796,0.43359 0.533204,0.4336 0.566406,0.40039 0.634765,0.36718 0.701172,0.33399 0.732422,0.30078 0.800781,0.26562 1.734379,0.4336 1.93555,0.30078 2.16797,0.20117 2.36914,0.0664 2.13476,-0.0664 2.60352,-0.20117 7.16992,-0.91992 c -0.0201,15.9136 0.006,19.375 -0.0859,38.33008 h 78.90625 0.0176 v -66.60352 a 40.133179,40.133179 0 0 1 -3.00391,0.12109 40.133179,40.133179 0 0 1 -40.13281,-40.13476 40.133179,40.133179 0 0 1 40.13281,-40.132814 40.133179,40.133179 0 0 1 2.46875,0.123047 C 195.48348,40.687087 176.54725,22.624698 153.09961,21.582031 v -0.103515 h -0.0156 -2.05468 z M 160.94531,148.91797 a 19.497873,19.497873 0 0 1 19.49805,19.49609 19.497873,19.497873 0 0 1 -19.49805,19.49805 19.497873,19.497873 0 0 1 -19.49804,-19.49805 19.497873,19.497873 0 0 1 19.49804,-19.49609 z m -28.96875,34.52344 a 7.5928893,7.5928893 0 0 1 7.59375,7.59375 7.5928893,7.5928893 0 0 1 -7.59375,7.59179 7.5928893,7.5928893 0 0 1 -7.59179,-7.59179 7.5928893,7.5928893 0 0 1 7.59179,-7.59375 z"
       transform="translate(244.39938,-596.04592)"
       id="path2100"
       inkscape:connector-curvature="0" />
    <path
       style="display:inline;fill:#804c19;fill-opacity:1;fill-rule:evenodd;stroke-width:0.01858962"
       d="m 9.6015625,90.025391 v 72.890629 2.06054 h 0.015625 0.058594 c 1.0993595,24.51357 20.7847075,44.39871 45.2988275,45.3711 h 0.01563 22.156632 c -3.567741,-0.76778 -2.272769,-0.42963 -7.774716,-2.1902 l -4.444416,-1.89184 -3.970703,-1.93554 -3.601562,-2.26953 -3.203125,-2.63477 -2.835938,-2.96875 -2.46875,-3.33594 -2.068359,-3.66992 -1.701172,-4.03711 -1.333984,-4.36914 -0.935547,-4.73828 -0.566406,-5.07031 -0.199219,-5.4375 V 90.025391 Z"
       transform="translate(244.39938,-596.04592)"
       id="path2098"
       inkscape:connector-curvature="0"
       sodipodi:nodetypes="ccccccccccccccccccccccc" />
  </g>
</svg>
