<?xml version="1.0" encoding="UTF-8"?>
<!DOCTYPE svg PUBLIC "-//W3C//DTD SVG 1.1//EN" "http://www.w3.org/Graphics/SVG/1.1/DTD/svg11.dtd"><svg version="1.1" viewBox="0 0 63500 10668" preserveAspectRatio="xMidYMid" fill-rule="evenodd" xmlns="http://www.w3.org/2000/svg" xmlns:xlink="http://www.w3.org/1999/xlink"><g visibility="visible" id="Default"><desc>Master slide</desc></g><g visibility="visible" id="page1"><desc>Slide</desc><g><desc>Drawing</desc><g><g style="stroke:none;fill:rgb(255,255,255)"><path d="M 5334,11049 L 5219,11044 4917,11009 4715,10971 4490,10915 4249,10836 4001,10732 3752,10597 3511,10429 3286,10224 3084,9977 2913,9687 2782,9347 2697,8956 2667,8509 2667,5334 2667,5780 2667,5803 2667,5804 2667,5804 2667,5804 2667,5804 2667,5804 2667,5799 2667,5731 2667,5334 -1016,5334 -498,5334 -472,5334 -470,5334 -470,5334 -470,5334 -470,5334 -471,5334 -476,5334 -556,5334 -1016,5334 1524,2794 2667,2794 2667,1651 5334,-1016 4441,-123 4396,-78 4393,-75 4393,-75 4393,-75 4393,-75 4394,-76 4404,-86 4540,-222 5334,-1016 5334,2794 7874,2794 7874,5334 5334,5334 5334,7239 5334,6078 5334,6020 5334,6016 5334,6016 5334,6016 5334,6016 5334,6017 5334,6030 5334,6207 5334,7239 5348,7463 5389,7658 5451,7828 5532,7973 5629,8096 5736,8199 5851,8283 5969,8350 6087,8403 6202,8442 6309,8470 6406,8489 6549,8507 6563,8507 6577,8508 6604,8509 7874,8509 7696,8509 7687,8509 7686,8509 7686,8509 7686,8509 7686,8509 7686,8509 7688,8509 7715,8509 7874,8509 7874,11049 5334,11049 7874,11049 5334,11049 Z"/></g><g/></g></g><g><desc>Drawing</desc><g><g style="stroke:none;fill:rgb(128,76,25)"><path d="M 254,7874 L 254,5335 2667,5335 2667,8510 2697,8957 2782,9348 2913,9688 3084,9978 3286,10225 3493,10414 2794,10414 2534,10401 2282,10362 2039,10300 1805,10214 1583,10107 1374,9980 1178,9834 998,9670 834,9490 688,9294 561,9085 454,8863 368,8629 306,8386 267,8134 254,7874 Z"/></g><g/></g></g><g><desc>Drawing</desc><g><g style="stroke:none;fill:rgb(128,76,25)"><path d="M 254,254 L 2794,254 4065,254 2667,1652 2667,2795 1524,2795 254,4065 254,254 Z"/></g><g/></g></g><g><desc>Drawing</desc><g><g style="stroke:none;fill:rgb(92,204,204)"><path d="M 7874,254 L 8134,267 8386,306 8629,368 8863,454 9085,561 9294,688 9490,834 9670,998 9834,1178 9980,1374 10107,1583 10214,1805 10300,2039 10362,2282 10401,2534 10414,2794 10414,5334 10414,10414 7874,10414 7874,8510 6604,8510 6577,8509 6563,8508 6549,8508 6406,8490 6309,8471 6202,8443 6087,8404 5969,8351 5851,8284 5736,8200 5629,8097 5532,7974 5451,7829 5389,7659 5348,7464 5334,7240 5334,5335 7874,5335 7874,2795 5334,2795 5334,254 7874,254 Z"/></g><g/></g></g><g><desc>Drawing</desc><g><g style="stroke:none;fill:rgb(255,255,255)"><path d="M 11684,6223 L 11682,6159 11677,6095 11669,6031 11658,5967 11643,5905 11626,5843 11605,5782 11581,5722 11554,5664 11524,5607 11492,5551 11456,5497 11418,5446 11378,5396 11334,5348 11289,5303 11241,5259 11191,5219 11140,5181 11086,5145 11030,5113 10973,5083 10915,5056 10855,5032 10794,5011 10732,4994 10670,4979 10606,4968 10542,4960 10478,4955 10414,4953 10414,4953 10350,4955 10286,4960 10222,4968 10158,4979 10096,4994 10034,5011 9973,5032 9913,5056 9855,5083 9798,5113 9742,5145 9688,5181 9637,5219 9587,5259 9539,5303 9494,5348 9450,5396 9410,5446 9372,5497 9336,5551 9304,5607 9274,5664 9247,5722 9223,5782 9202,5843 9185,5905 9170,5967 9159,6031 9151,6095 9146,6159 9144,6223 9144,6223 9146,6287 9151,6351 9159,6415 9170,6479 9185,6541 9202,6603 9223,6664 9247,6724 9274,6782 9304,6839 9336,6895 9372,6949 9410,7000 9450,7050 9494,7098 9539,7143 9587,7187 9637,7227 9688,7265 9742,7301 9798,7333 9855,7363 9913,7390 9973,7414 10034,7435 10096,7452 10158,7467 10222,7478 10286,7486 10350,7491 10414,7493 10414,7493 10478,7491 10542,7486 10606,7478 10670,7467 10732,7452 10794,7435 10855,7414 10915,7390 10973,7363 11030,7333 11086,7301 11140,7265 11191,7227 11241,7187 11289,7143 11334,7098 11378,7050 11418,7000 11456,6949 11492,6895 11524,6839 11554,6782 11581,6724 11605,6664 11626,6603 11643,6541 11658,6479 11669,6415 11677,6351 11682,6287 11684,6223 Z"/></g><g/></g></g><g><desc>Drawing</desc><g><g style="stroke:none;fill:rgb(255,255,255)"><path d="M 9979,8382 L 9978,8343 9975,8305 9970,8267 9963,8229 9955,8191 9944,8154 9932,8117 9917,8082 9901,8046 9883,8012 9864,7979 9842,7947 9820,7916 9795,7886 9769,7857 9742,7830 9713,7804 9683,7779 9652,7757 9620,7735 9587,7716 9553,7698 9517,7682 9482,7667 9445,7655 9408,7644 9370,7636 9332,7629 9294,7624 9256,7621 9217,7620 9217,7620 9178,7621 9140,7624 9102,7629 9064,7636 9026,7644 8989,7655 8952,7667 8917,7682 8881,7698 8847,7716 8814,7735 8782,7757 8751,7779 8721,7804 8692,7830 8665,7857 8639,7886 8614,7916 8592,7947 8570,7979 8551,8012 8533,8046 8517,8082 8502,8117 8490,8154 8479,8191 8471,8229 8464,8267 8459,8305 8456,8343 8455,8382 8455,8382 8456,8421 8459,8459 8464,8497 8471,8535 8479,8573 8490,8610 8502,8647 8517,8682 8533,8718 8551,8752 8570,8785 8592,8817 8614,8848 8639,8878 8665,8907 8692,8934 8721,8960 8751,8985 8782,9007 8814,9029 8847,9048 8881,9066 8917,9082 8952,9097 8989,9109 9026,9120 9064,9128 9102,9135 9140,9140 9178,9143 9217,9144 9217,9144 9256,9143 9294,9140 9332,9135 9370,9128 9408,9120 9445,9109 9482,9097 9517,9082 9553,9066 9587,9048 9620,9029 9652,9007 9683,8985 9713,8960 9742,8934 9769,8907 9795,8878 9820,8848 9842,8817 9864,8785 9883,8752 9901,8718 9917,8682 9932,8647 9944,8610 9955,8573 9963,8535 9970,8497 9975,8459 9978,8421 9979,8382 Z"/></g><g/></g></g><g><desc>Drawing</desc><g><g style="stroke:none;fill:rgb(128,76,25)"><path d="M 14911,3326 L 14911,4310 14086,4310 14086,7422 14087,7513 14092,7596 14099,7671 14110,7738 14123,7797 14140,7848 14149,7870 14159,7890 14170,7909 14181,7925 14194,7940 14208,7953 14224,7966 14241,7978 14260,7989 14281,7999 14303,8008 14327,8016 14379,8029 14437,8038 14502,8044 14573,8046 14637,8044 14715,8038 14807,8028 14911,8014 14911,9052 14819,9079 14723,9103 14622,9123 14517,9139 14408,9152 14294,9161 14176,9166 14054,9168 13879,9163 13714,9147 13561,9121 13420,9084 13290,9037 13171,8979 13063,8911 12967,8832 12882,8743 12808,8643 12746,8533 12695,8412 12655,8281 12627,8139 12610,7987 12604,7824 12604,4310 11874,4310 11874,3326 12604,3326 12604,2286 14086,1791 14086,3326 14911,3326 Z"/></g><g/></g></g><g><desc>Drawing</desc><g><g style="stroke:none;fill:rgb(128,76,25)"><path d="M 19094,5433 L 19090,5305 19080,5185 19062,5073 19037,4970 19005,4875 18966,4788 18920,4709 18866,4639 18806,4577 18738,4523 18664,4477 18582,4440 18493,4411 18397,4391 18294,4378 18184,4374 18062,4379 17946,4394 17835,4419 17730,4454 17679,4475 17630,4498 17582,4524 17536,4553 17491,4584 17447,4617 17363,4692 17287,4774 17253,4817 17222,4861 17193,4907 17167,4954 17143,5002 17121,5052 17103,5103 17086,5155 17061,5263 17046,5377 17041,5496 17041,8925 15559,8925 15559,2286 17041,1778 17041,4036 17119,3924 17201,3820 17287,3723 17376,3633 17468,3550 17564,3475 17663,3406 17766,3345 17872,3291 17982,3245 18095,3205 18211,3173 18332,3147 18455,3129 18582,3119 18713,3115 18797,3116 18880,3121 18962,3128 19042,3138 19122,3150 19200,3166 19277,3184 19353,3205 19428,3229 19503,3257 19578,3289 19652,3324 19726,3363 19800,3405 19873,3451 19946,3501 20017,3556 20084,3617 20147,3685 20206,3759 20262,3839 20314,3927 20362,4020 20406,4120 20446,4225 20480,4336 20509,4450 20533,4570 20551,4694 20564,4823 20572,4956 20575,5094 20575,8925 19094,8925 19094,5433 Z"/></g><g/></g></g><g><desc>Drawing</desc><g><g style="stroke:none;fill:rgb(128,76,25)"><path d="M 23901,3115 L 24228,3128 24536,3166 24825,3229 24963,3270 25096,3318 25224,3371 25348,3431 25467,3498 25581,3571 25691,3650 25796,3735 25896,3827 25992,3925 26082,4029 26167,4137 26245,4251 26318,4369 26385,4493 26446,4622 26551,4894 26633,5186 26691,5499 26726,5831 26738,6184 26726,6519 26690,6836 26631,7135 26548,7417 26497,7551 26440,7680 26378,7806 26309,7926 26235,8042 26155,8154 26068,8261 25976,8364 25879,8461 25777,8552 25671,8637 25561,8716 25447,8788 25329,8854 25206,8914 25079,8967 24948,9014 24813,9055 24529,9118 24229,9155 23912,9168 23590,9155 23286,9117 23000,9054 22864,9013 22732,8966 22605,8912 22482,8852 22363,8785 22249,8712 22140,8633 22035,8548 21934,8456 21838,8358 21747,8255 21662,8147 21583,8034 21509,7916 21442,7794 21380,7667 21274,7400 21192,7113 21133,6808 21098,6484 21086,6141 21098,5799 21133,5475 21192,5170 21274,4883 21380,4616 21442,4489 21509,4367 21583,4249 21662,4136 21747,4028 21838,3925 21934,3827 22035,3735 22140,3650 22249,3571 22362,3498 22480,3432 22603,3372 22730,3318 22861,3270 22996,3229 23280,3166 23582,3128 23901,3115 Z M 23912,4311 L 23838,4313 23765,4319 23694,4329 23625,4343 23558,4361 23492,4382 23429,4408 23367,4438 23307,4472 23249,4509 23192,4551 23138,4597 23085,4646 23034,4700 22985,4757 22938,4819 22851,4951 22776,5092 22713,5243 22661,5403 22620,5573 22591,5753 22574,5942 22568,6141 22574,6340 22591,6530 22620,6710 22661,6880 22713,7040 22776,7191 22851,7332 22938,7464 22985,7526 23034,7583 23085,7637 23138,7686 23192,7732 23249,7774 23307,7811 23367,7845 23429,7875 23492,7901 23558,7922 23625,7940 23694,7954 23765,7964 23838,7970 23912,7972 23985,7970 24057,7964 24127,7954 24195,7941 24261,7923 24326,7901 24389,7876 24450,7847 24510,7813 24568,7776 24624,7735 24679,7690 24732,7641 24783,7588 24880,7470 24968,7339 25045,7199 25109,7050 25162,6892 25203,6723 25233,6546 25250,6359 25256,6163 25250,5957 25233,5761 25205,5576 25165,5402 25113,5239 25051,5086 24976,4944 24891,4813 24844,4752 24796,4695 24745,4642 24693,4593 24639,4548 24582,4507 24524,4470 24464,4436 24402,4407 24337,4382 24271,4360 24203,4342 24133,4329 24062,4319 23988,4313 23912,4311 Z"/></g><g/></g></g><g><desc>Drawing</desc><g><g style="stroke:none;fill:rgb(128,76,25)"><path d="M 29867,3326 L 29867,4310 29042,4310 29042,7422 29043,7513 29048,7596 29055,7671 29066,7738 29079,7797 29096,7848 29105,7870 29115,7890 29126,7909 29137,7925 29150,7940 29164,7953 29180,7966 29197,7978 29216,7989 29237,7999 29259,8008 29283,8016 29335,8029 29393,8038 29458,8044 29529,8046 29593,8044 29671,8038 29763,8028 29867,8014 29867,9052 29775,9079 29679,9103 29578,9123 29473,9139 29364,9152 29250,9161 29132,9166 29010,9168 28835,9163 28670,9147 28517,9121 28376,9084 28246,9037 28127,8979 28019,8911 27923,8832 27838,8743 27764,8643 27702,8533 27651,8412 27611,8281 27583,8139 27566,7987 27560,7824 27560,4310 26830,4310 26830,3326 27560,3326 27560,2286 29042,1791 29042,3326 29867,3326 Z"/></g><g/></g></g><g><desc>Group</desc><g><desc>Drawing</desc><g><g style="stroke:none;fill:rgb(92,204,204)"><path d="M 32012,5433 L 33885,3210 35568,3210 33621,5369 35705,8925 33970,8925 32605,6406 32012,7052 32012,8925 30530,8925 30530,2286 32012,1778 32012,5433 Z"/></g><g/></g></g><g><desc>Drawing</desc><g><g style="stroke:none;fill:rgb(92,204,204)"><path d="M 38169,3115 L 38353,3120 38534,3136 38712,3162 38888,3199 38976,3222 39064,3250 39152,3282 39241,3318 39331,3359 39421,3404 39512,3453 39603,3506 39693,3563 39779,3625 39863,3690 39944,3759 40022,3831 40097,3908 40169,3988 40238,4072 40304,4162 40366,4258 40426,4362 40482,4472 40536,4589 40586,4714 40633,4845 40677,4983 40717,5127 40751,5276 40780,5431 40804,5590 40822,5755 40835,5924 40846,6279 40845,6343 40844,6406 40840,6469 40835,6533 37004,6533 37012,6691 37025,6839 37041,6974 37063,7099 37076,7158 37091,7218 37109,7276 37129,7335 37151,7393 37176,7450 37203,7508 37232,7565 37264,7620 37300,7672 37340,7721 37383,7766 37430,7808 37480,7847 37534,7882 37592,7914 37654,7942 37719,7967 37788,7988 37861,8005 37937,8019 38018,8028 38102,8034 38190,8036 38294,8033 38393,8025 38488,8011 38578,7991 38664,7966 38746,7935 38823,7898 38896,7856 38965,7808 39029,7755 39089,7696 39144,7631 39195,7561 39242,7485 39284,7403 39322,7316 40783,7316 40714,7522 40631,7718 40533,7902 40420,8076 40292,8240 40150,8392 39992,8534 39820,8665 39636,8783 39445,8885 39246,8971 39039,9042 38825,9097 38603,9137 38374,9160 38137,9168 37841,9156 37561,9119 37427,9091 37297,9057 37171,9017 37049,8971 36932,8919 36818,8860 36708,8795 36603,8725 36501,8648 36404,8565 36310,8475 36221,8380 36137,8279 36058,8174 35984,8064 35916,7949 35853,7830 35796,7706 35698,7445 35621,7165 35567,6867 35534,6550 35523,6215 35534,5865 35567,5534 35623,5221 35700,4928 35800,4654 35922,4399 35991,4278 36066,4162 36146,4051 36232,3945 36323,3844 36417,3750 36516,3663 36619,3582 36726,3507 36837,3439 36952,3377 37071,3322 37194,3274 37321,3232 37452,3196 37587,3167 37870,3128 38169,3115 Z M 39301,5549 L 39284,5397 39260,5254 39228,5120 39189,4996 39142,4880 39088,4773 39026,4675 38992,4629 38957,4586 38920,4545 38881,4507 38840,4471 38797,4438 38753,4407 38707,4379 38659,4354 38609,4332 38557,4312 38504,4295 38449,4280 38392,4268 38273,4252 38147,4247 38029,4252 37917,4267 37811,4293 37712,4328 37619,4374 37533,4430 37453,4496 37380,4573 37313,4659 37253,4756 37199,4862 37151,4979 37110,5107 37076,5244 37048,5391 37026,5549 39301,5549 Z"/></g><g/></g></g><g><desc>Drawing</desc><g><g style="stroke:none;fill:rgb(92,204,204)"><path d="M 43853,3115 L 44037,3120 44218,3136 44396,3162 44572,3199 44660,3222 44748,3250 44836,3282 44925,3318 45015,3359 45105,3404 45196,3453 45287,3506 45377,3563 45463,3625 45547,3690 45628,3759 45706,3831 45781,3908 45853,3988 45922,4072 45988,4162 46050,4258 46110,4362 46166,4472 46220,4589 46270,4714 46317,4845 46361,4983 46401,5127 46435,5276 46464,5431 46488,5590 46506,5755 46519,5924 46530,6279 46529,6343 46528,6406 46524,6469 46519,6533 42688,6533 42696,6691 42709,6839 42725,6974 42747,7099 42760,7158 42775,7218 42793,7276 42813,7335 42835,7393 42860,7450 42887,7508 42916,7565 42948,7620 42984,7672 43024,7721 43067,7766 43114,7808 43164,7847 43218,7882 43276,7914 43338,7942 43403,7967 43472,7988 43545,8005 43621,8019 43702,8028 43786,8034 43874,8036 43978,8033 44077,8025 44172,8011 44262,7991 44348,7966 44430,7935 44507,7898 44580,7856 44649,7808 44713,7755 44773,7696 44828,7631 44879,7561 44926,7485 44968,7403 45006,7316 46467,7316 46398,7522 46315,7718 46217,7902 46104,8076 45976,8240 45834,8392 45676,8534 45504,8665 45320,8783 45129,8885 44930,8971 44723,9042 44509,9097 44287,9137 44058,9160 43821,9168 43525,9156 43245,9119 43111,9091 42981,9057 42855,9017 42733,8971 42616,8919 42502,8860 42392,8795 42287,8725 42185,8648 42088,8565 41994,8475 41905,8380 41821,8279 41742,8174 41668,8064 41600,7949 41537,7830 41480,7706 41382,7445 41305,7165 41251,6867 41218,6550 41207,6215 41218,5865 41251,5534 41307,5221 41384,4928 41484,4654 41606,4399 41675,4278 41750,4162 41830,4051 41916,3945 42007,3844 42101,3750 42200,3663 42303,3582 42410,3507 42521,3439 42636,3377 42755,3322 42878,3274 43005,3232 43136,3196 43271,3167 43554,3128 43853,3115 Z M 44985,5549 L 44968,5397 44944,5254 44912,5120 44873,4996 44826,4880 44772,4773 44710,4675 44676,4629 44641,4586 44604,4545 44565,4507 44524,4471 44481,4438 44437,4407 44391,4379 44343,4354 44293,4332 44241,4312 44188,4295 44133,4280 44076,4268 43957,4252 43831,4247 43713,4252 43601,4267 43495,4293 43396,4328 43303,4374 43217,4430 43137,4496 43064,4573 42997,4659 42937,4756 42883,4862 42835,4979 42794,5107 42760,5244 42732,5391 42710,5549 44985,5549 Z"/></g><g/></g></g><g><desc>Drawing</desc><g><g style="stroke:none;fill:rgb(92,204,204)"><path d="M 50141,3115 L 50274,3118 50404,3129 50531,3145 50654,3169 50774,3200 50891,3237 51005,3281 51115,3332 51221,3390 51325,3454 51425,3525 51522,3603 51615,3688 51706,3779 51792,3878 51876,3983 52030,4207 52163,4444 52276,4694 52369,4959 52441,5237 52492,5528 52523,5833 52533,6152 52522,6471 52490,6775 52437,7067 52362,7344 52266,7607 52149,7857 52010,8094 51850,8316 51674,8518 51582,8609 51487,8693 51390,8771 51290,8842 51187,8906 51081,8963 50973,9014 50862,9058 50749,9095 50633,9125 50514,9149 50392,9166 50268,9176 50141,9179 50011,9175 49885,9164 49763,9146 49645,9121 49531,9088 49421,9048 49316,9001 49215,8946 49117,8885 49024,8815 48936,8739 48851,8655 48770,8565 48694,8466 48621,8361 48553,8248 48553,10414 47072,10414 47072,3210 48553,2667 48553,4057 48621,3943 48694,3836 48770,3737 48851,3645 48936,3560 49024,3483 49117,3413 49215,3351 49316,3295 49421,3247 49531,3207 49645,3174 49763,3148 49885,3130 50011,3119 50141,3115 Z M 50707,4856 L 50663,4795 50618,4738 50570,4685 50522,4636 50471,4591 50419,4550 50365,4512 50309,4479 50251,4449 50192,4424 50132,4402 50069,4384 50005,4371 49939,4361 49871,4355 49802,4353 49733,4355 49665,4361 49599,4371 49535,4384 49473,4402 49412,4423 49353,4448 49296,4478 49240,4511 49186,4548 49133,4588 49083,4633 49034,4682 48987,4734 48897,4851 48816,4980 48747,5119 48688,5267 48639,5425 48601,5592 48575,5769 48558,5956 48553,6152 48558,6348 48575,6535 48601,6711 48639,6879 48688,7036 48747,7183 48816,7321 48897,7449 48941,7509 48986,7564 49034,7616 49082,7664 49133,7708 49185,7749 49239,7785 49295,7818 49353,7847 49412,7872 49472,7893 49535,7910 49599,7924 49665,7933 49733,7939 49802,7941 49870,7939 49936,7933 50001,7923 50065,7910 50126,7892 50187,7871 50245,7846 50302,7817 50358,7783 50412,7746 50464,7706 50515,7661 50564,7612 50611,7560 50702,7443 50784,7315 50855,7177 50915,7031 50964,6877 51002,6714 51029,6542 51046,6362 51051,6173 51046,5974 51029,5785 51003,5606 50965,5437 50916,5277 50857,5127 50788,4987 50707,4856 Z"/></g><g/></g></g><g><desc>Drawing</desc><g><g style="stroke:none;fill:rgb(92,204,204)"><path d="M 55603,3115 L 55787,3120 55968,3136 56146,3162 56322,3199 56410,3222 56498,3250 56586,3282 56675,3318 56765,3359 56855,3404 56946,3453 57037,3506 57127,3563 57213,3625 57297,3690 57378,3759 57456,3831 57531,3908 57603,3988 57672,4072 57738,4162 57800,4258 57860,4362 57916,4472 57970,4589 58020,4714 58067,4845 58111,4983 58151,5127 58185,5276 58214,5431 58238,5590 58256,5755 58269,5924 58280,6279 58279,6343 58278,6406 58274,6469 58269,6533 54438,6533 54446,6691 54459,6839 54475,6974 54497,7099 54510,7158 54525,7218 54543,7276 54563,7335 54585,7393 54610,7450 54637,7508 54666,7565 54698,7620 54734,7672 54774,7721 54817,7766 54864,7808 54914,7847 54968,7882 55026,7914 55088,7942 55153,7967 55222,7988 55295,8005 55371,8019 55452,8028 55536,8034 55624,8036 55728,8033 55827,8025 55922,8011 56012,7991 56098,7966 56180,7935 56257,7898 56330,7856 56399,7808 56463,7755 56523,7696 56578,7631 56629,7561 56676,7485 56718,7403 56756,7316 58217,7316 58148,7522 58065,7718 57967,7902 57854,8076 57726,8240 57584,8392 57426,8534 57254,8665 57070,8783 56879,8885 56680,8971 56473,9042 56259,9097 56037,9137 55808,9160 55571,9168 55275,9156 54995,9119 54861,9091 54731,9057 54605,9017 54483,8971 54366,8919 54252,8860 54142,8795 54037,8725 53935,8648 53838,8565 53744,8475 53655,8380 53571,8279 53492,8174 53418,8064 53350,7949 53287,7830 53230,7706 53132,7445 53055,7165 53001,6867 52968,6550 52957,6215 52968,5865 53001,5534 53057,5221 53134,4928 53234,4654 53356,4399 53425,4278 53500,4162 53580,4051 53666,3945 53757,3844 53851,3750 53950,3663 54053,3582 54160,3507 54271,3439 54386,3377 54505,3322 54628,3274 54755,3232 54886,3196 55021,3167 55304,3128 55603,3115 Z M 56735,5549 L 56718,5397 56694,5254 56662,5120 56623,4996 56576,4880 56522,4773 56460,4675 56426,4629 56391,4586 56354,4545 56315,4507 56274,4471 56231,4438 56187,4407 56141,4379 56093,4354 56043,4332 55991,4312 55938,4295 55883,4280 55826,4268 55707,4252 55581,4247 55463,4252 55351,4267 55245,4293 55146,4328 55053,4374 54967,4430 54887,4496 54814,4573 54747,4659 54687,4756 54633,4862 54585,4979 54544,5107 54510,5244 54482,5391 54460,5549 56735,5549 Z"/></g><g/></g></g><g><desc>Drawing</desc><g><g style="stroke:none;fill:rgb(92,204,204)"><path d="M 58975,3210 L 60456,2667 60456,4332 60517,4191 60585,4058 60658,3933 60737,3816 60822,3708 60912,3608 61009,3516 61112,3432 61219,3358 61329,3293 61442,3239 61557,3194 61675,3160 61795,3135 61918,3120 62044,3115 62091,3116 62136,3118 62181,3121 62224,3126 62224,4628 62095,4610 61975,4597 61862,4589 61758,4586 61600,4591 61453,4606 61316,4632 61188,4667 61071,4713 60965,4769 60868,4835 60782,4912 60705,4998 60639,5095 60583,5201 60537,5318 60502,5446 60476,5583 60461,5730 60456,5888 60456,8925 58975,8925 58975,3210 Z"/></g><g/></g></g></g></g></svg>